<svg height="512pt" viewBox="0 -13 512 511" width="512pt" xmlns="http://www.w3.org/2000/svg"><path d="m489.195312 42.929688h-32.300781v-24.867188c0-9.683594-7.878906-17.5625-17.5625-17.5625h-366.664062c-9.683594 0-17.5625 7.878906-17.5625 17.5625v24.867188h-32.296875c-12.574219 0-22.80468775 10.230468-22.80468775 22.804687v271.273437c0 .019532-.00390625.039063-.00390625.058594 0 .019532.00390625.039063.00390625.058594v50.675781c0 9.761719 7.94140575 17.703125 17.70312475 17.703125h191.472657c-3.019532 15.988282-9.003907 35.90625-20.859376 50.867188-4.214843 5.320312-4.988281 12.4375-2.019531 18.574218 3 6.207032 9.136719 10.066407 16.015625 10.066407h34.445313c4.140625 0 7.5-3.359375 7.5-7.5 0-4.144531-3.359375-7.5-7.5-7.5h-34.445313c-1.570312 0-2.28125-1.117188-2.511718-1.59375-.328126-.675781-.542969-1.699219.273437-2.730469 14.417969-18.199219 21.171875-42.007812 24.339844-60.183594h63.171875c3.183594 18.277344 9.945312 42.019532 24.335937 60.179688.820313 1.035156.601563 2.058594.273438 2.734375-.230469.476562-.9375 1.59375-2.511719 1.59375h-40.265625c-4.144531 0-7.5 3.355469-7.5 7.5 0 4.140625 3.355469 7.5 7.5 7.5h40.265625c6.878906 0 13.015625-3.855469 16.019531-10.066407 2.964844-6.136718 2.191407-13.253906-2.023437-18.574218-11.835938-14.941406-17.824219-34.800782-20.855469-50.867188h191.46875c9.761719 0 17.703125-7.941406 17.703125-17.703125v-322.066406c0-12.574219-10.230469-22.804687-22.804688-22.804687zm0 15c4.300782 0 7.804688 3.5 7.804688 7.804687v263.832031h-40.105469v-40.503906c0-4.144531-3.355469-7.5-7.5-7.5-4.140625 0-7.5 3.355469-7.5 7.5v40.503906h-133.394531v-219.3125h7.667969v100.835938c0 4.140625 3.355469 7.5 7.5 7.5h74c4.144531 0 7.5-3.359375 7.5-7.5v-100.835938h36.726562v143.5c0 4.144532 3.359375 7.5 7.5 7.5 4.144531 0 7.5-3.355468 7.5-7.5v-195.824218zm-47.300781 7.816406v29.507812h-215.894531c-4.144531 0-7.5 3.359375-7.5 7.5 0 4.144532 3.355469 7.5 7.5 7.5h67.5v12.667969h-132v-12.667969h28.164062c4.144532 0 7.5-3.355468 7.5-7.5 0-4.140625-3.355468-7.5-7.5-7.5h-119.558593v-29.507812zm-58.433593 44.507812-52.292969 76.558594v-76.558594zm6.707031 16.777344v76.558594h-52.292969zm-109.632813 76.558594c-1.632812-11.691406-7.046875-22.472656-15.617187-30.839844-10.0625-9.824219-23.351563-15.234375-37.417969-15.234375-14.09375 0-27.398438 5.425781-37.46875 15.28125-8.542969 8.363281-13.941406 19.125-15.570312 30.792969h-12.960938v-65.667969h132v65.667969zm-15.191406 0h-75.664062c3.535156-17.636719 19.285156-31.074219 37.820312-31.074219 18.859375 0 34.390625 13.210937 37.84375 31.074219zm-195.238281-93.335938h76.394531v219.3125h-76.394531zm91.394531 108.335938h132v110.976562h-132zm280.394531-200.527344v32.683594h-258.253906v-35.246094h255.691406c1.414063 0 2.5625 1.148438 2.5625 2.5625zm-369.226562-2.5625h95.976562v35.246094h-98.539062v-32.683594c0-1.414062 1.148437-2.5625 2.5625-2.5625zm-49.859375 42.429688h32.296875v271.636718h-40.101563v-263.832031c0-4.300781 3.5-7.804687 7.804688-7.804687zm471.488281 332.574218h-476.589844c-1.492187 0-2.703125-1.210937-2.703125-2.703125v-43.234375h481.996094v43.234375c0 1.492188-1.214844 2.703125-2.703125 2.703125zm0 0"/><path d="m98.726562 40.949219h.042969c4.121094 0 7.476563-3.328125 7.5-7.457031.023438-4.140626-3.3125-7.519532-7.457031-7.542969h-.082031c-.015625 0-.03125 0-.042969 0-4.121094 0-7.433594 3.328125-7.460938 7.457031-.023437 4.140625 3.355469 7.519531 7.5 7.542969zm0 0"/><path d="m120.183594 41.011719c4.140625 0 7.5-3.359375 7.5-7.5s-3.359375-7.5-7.5-7.5h-.082032c-4.144531 0-7.460937 3.359375-7.460937 7.5s3.398437 7.5 7.542969 7.5zm0 0"/><path d="m141.550781 41.074219h.042969c4.121094 0 7.476562-3.328125 7.5-7.457031.023438-4.140626-3.3125-7.519532-7.457031-7.542969h-.082031c-.015626 0-.03125 0-.042969 0-4.121094 0-7.433594 3.328125-7.460938 7.457031-.023437 4.140625 3.355469 7.519531 7.5 7.542969zm0 0"/><path d="m265.054688 360.035156h-18.113282c-4.140625 0-7.5 3.359375-7.5 7.5s3.359375 7.5 7.5 7.5h18.113282c4.144531 0 7.503906-3.359375 7.503906-7.5s-3.359375-7.5-7.503906-7.5zm0 0"/><path d="m117.984375 138.835938c0-4.144532-3.355469-7.5-7.5-7.5h-20.488281c-4.140625 0-7.5 3.355468-7.5 7.5 0 4.140624 3.359375 7.5 7.5 7.5h20.488281c4.144531 0 7.5-3.359376 7.5-7.5zm0 0"/><path d="m100.34375 164.167969c0 4.140625 3.355469 7.5 7.5 7.5h20.488281c4.140625 0 7.5-3.359375 7.5-7.5 0-4.144531-3.359375-7.5-7.5-7.5h-20.488281c-4.144531 0-7.5 3.355469-7.5 7.5zm0 0"/><path d="m128.332031 175.390625h-20.488281c-4.144531 0-7.5 3.359375-7.5 7.5s3.355469 7.5 7.5 7.5h20.488281c4.140625 0 7.5-3.359375 7.5-7.5s-3.359375-7.5-7.5-7.5zm0 0"/><path d="m128.332031 194.113281h-20.488281c-4.144531 0-7.5 3.359375-7.5 7.5s3.355469 7.5 7.5 7.5h20.488281c4.140625 0 7.5-3.359375 7.5-7.5s-3.359375-7.5-7.5-7.5zm0 0"/><path d="m128.332031 212.835938h-20.488281c-4.144531 0-7.5 3.359374-7.5 7.5 0 4.140624 3.355469 7.5 7.5 7.5h20.488281c4.140625 0 7.5-3.359376 7.5-7.5 0-4.140626-3.359375-7.5-7.5-7.5zm0 0"/><path d="m177.429688 242.589844h12.234374c4.144532 0 7.5-3.359375 7.5-7.5 0-4.144532-3.355468-7.5-7.5-7.5h-12.234374c-4.144532 0-7.5 3.355468-7.5 7.5 0 4.140625 3.355468 7.5 7.5 7.5zm0 0"/><path d="m177.429688 273.921875h78.570312c4.144531 0 7.5-3.355469 7.5-7.5 0-4.140625-3.355469-7.5-7.5-7.5h-78.570312c-4.144532 0-7.5 3.359375-7.5 7.5 0 4.144531 3.355468 7.5 7.5 7.5zm0 0"/><path d="m256 277.589844h-78.570312c-4.144532 0-7.5 3.359375-7.5 7.5s3.355468 7.5 7.5 7.5h78.570312c4.144531 0 7.5-3.359375 7.5-7.5s-3.355469-7.5-7.5-7.5zm0 0"/><path d="m256 296.257812h-78.570312c-4.144532 0-7.5 3.355469-7.5 7.5 0 4.140626 3.355468 7.5 7.5 7.5h78.570312c4.144531 0 7.5-3.359374 7.5-7.5 0-4.144531-3.355469-7.5-7.5-7.5zm0 0"/><path d="m343.667969 226.921875h-20c-4.144531 0-7.5 3.359375-7.5 7.5s3.355469 7.5 7.5 7.5h20c4.140625 0 7.5-3.359375 7.5-7.5s-3.359375-7.5-7.5-7.5zm0 0"/><path d="m343.667969 247.589844h-20c-4.144531 0-7.5 3.359375-7.5 7.5s3.355469 7.5 7.5 7.5h20c4.140625 0 7.5-3.359375 7.5-7.5s-3.359375-7.5-7.5-7.5zm0 0"/></svg>